<svg width="30" height="30" viewBox="0 0 30 30" fill="none" xmlns="http://www.w3.org/2000/svg">
<path d="M16.1866 3.8093C16.4591 3.10196 16.9394 2.49375 17.5643 2.06478C18.1893 1.63582 18.9295 1.40622 19.6875 1.40625" stroke="black" stroke-width="1.5" stroke-linecap="round" stroke-linejoin="round"/>
<path d="M25.6069 19.0937C24.1331 22.6935 21.4577 25.3125 19.2187 25.3125H10.7812C7.5 25.3125 3.28125 19.6875 3.28125 13.5938C3.28126 12.2364 3.67415 10.9081 4.41249 9.7691C5.15083 8.63013 6.20305 7.72921 7.44214 7.1751C8.68123 6.62098 10.0542 6.43735 11.3954 6.64638C12.7365 6.85541 13.9885 7.44816 15.0002 8.35307L15 8.35286C15.7163 7.7123 16.5562 7.22533 17.468 6.92202C18.3797 6.6187 19.344 6.50548 20.3012 6.58933C21.2585 6.67318 22.1884 6.95233 23.0335 7.40955C23.8787 7.86677 24.6211 8.49235 25.2151 9.24769L25.2151 9.2477C24.354 9.76843 23.6484 10.5105 23.1716 11.3967C22.6949 12.2829 22.4645 13.2806 22.5044 14.2861C22.5444 15.2916 22.8533 16.2679 23.3988 17.1135C23.9444 17.959 24.7067 18.6428 25.6064 19.0935L25.6069 19.0937Z" stroke="black" stroke-width="1.5" stroke-linecap="round" stroke-linejoin="round"/>
</svg>
