<svg width="173" height="176" viewBox="0 0 173 176" fill="none" xmlns="http://www.w3.org/2000/svg">
<path d="M130.057 154.137L140.486 132.273H47.2376C41.0761 132.637 37.8317 134.839 32.5142 143.205V154.137H130.057Z" fill="white"/>
<path d="M32.4391 148.5C32.4391 144.124 34.1479 139.927 37.1895 136.833C40.2311 133.738 44.3564 132 48.6579 132H140.564V22H48.6579C44.3564 22 40.2311 23.7384 37.1895 26.8327C34.1479 29.9271 32.4391 34.1239 32.4391 38.5V148.5Z" fill="#FED96A" stroke="black" stroke-width="2" stroke-linecap="round" stroke-linejoin="round"/>
<path d="M32.4388 148.5V154H129.751" stroke="black" stroke-width="2" stroke-linecap="round" stroke-linejoin="round"/>
<path d="M140.486 132.273L129.443 154.137" stroke="black" stroke-width="2"/>
<path d="M130.363 22.9565V88.9565L108.734 72.4565L87.1135 88.9565V22.9565" fill="#FA8537"/>
<path d="M130.363 22.9565V88.9565L108.734 72.4565L87.1135 88.9565V22.9565" stroke="black" stroke-width="2" stroke-linecap="round" stroke-linejoin="round"/>
</svg>
