<svg width="23" height="20" viewBox="0 0 23 20" fill="none" xmlns="http://www.w3.org/2000/svg">
<path d="M4.63009 13.828C3.60391 12.2572 3.24453 10.4002 3.61944 8.60577C3.99435 6.81136 5.07776 5.20294 6.66624 4.08255C8.25471 2.96216 10.239 2.40686 12.2464 2.52093C14.2539 2.635 16.1464 3.41059 17.5687 4.70206C18.9909 5.99353 19.8451 7.71204 19.9707 9.5349C20.0963 11.3578 19.4848 13.1596 18.251 14.602C17.0171 16.0444 15.2458 17.0282 13.2697 17.3686C11.2936 17.7091 9.24857 17.3827 7.51866 16.4509L7.51868 16.4508L4.66601 17.1909C4.54798 17.2216 4.42309 17.223 4.30426 17.195C4.18544 17.1671 4.07701 17.1108 3.99022 17.0319C3.90342 16.9531 3.84142 16.8547 3.81063 16.7468C3.77984 16.6389 3.78138 16.5255 3.81511 16.4183L4.63016 13.8279L4.63009 13.828Z" stroke="black" stroke-width="1.5" stroke-linecap="round" stroke-linejoin="round"/>
</svg>
