<svg width="30" height="30" viewBox="0 0 30 30" fill="none" xmlns="http://www.w3.org/2000/svg">
<path d="M5.32368 20.742C3.92595 18.3857 3.43645 15.6002 3.9471 12.9086C4.45776 10.217 5.93344 7.80439 8.09705 6.1238C10.2607 4.44321 12.9634 3.61026 15.6976 3.78137C18.4319 3.95247 21.0097 5.11585 22.9469 7.05306C24.8841 8.99027 26.0475 11.568 26.2186 14.3023C26.3898 17.0366 25.5568 19.7393 23.8762 21.9029C22.1957 24.0665 19.7831 25.5422 17.0914 26.0529C14.3998 26.5636 11.6144 26.0741 9.25811 24.6764L9.25814 24.6762L5.3726 25.7864C5.21184 25.8323 5.04173 25.8344 4.87988 25.7925C4.71804 25.7506 4.57035 25.6661 4.45213 25.5479C4.33391 25.4297 4.24945 25.282 4.20751 25.1201C4.16558 24.9583 4.16768 24.7882 4.21362 24.6274L5.32377 20.7419L5.32368 20.742Z" stroke="black" stroke-width="1.5" stroke-linecap="round" stroke-linejoin="round"/>
<path d="M9.375 16.875L13.125 13.125L16.875 16.875L20.625 13.125" stroke="black" stroke-width="1.5" stroke-linecap="round" stroke-linejoin="round"/>
</svg>
