<svg width="47" height="47" viewBox="0 0 47 47" fill="none" xmlns="http://www.w3.org/2000/svg">
<path d="M23.4794 13.2188C26.3185 13.2188 28.62 10.9172 28.62 8.07812C28.62 5.23904 26.3185 2.9375 23.4794 2.9375C20.6403 2.9375 18.3387 5.23904 18.3387 8.07812C18.3387 10.9172 20.6403 13.2188 23.4794 13.2188Z" fill="#DA3535" stroke="black" stroke-width="1.5" stroke-linecap="round" stroke-linejoin="round"/>
<path d="M28.2569 24.7328L34.6362 29.6945C35.0494 30.1076 35.6097 30.3398 36.194 30.3398C36.7783 30.3398 37.3387 30.1076 37.7519 29.6945C38.165 29.2813 38.3972 28.7209 38.3972 28.1366C38.3972 27.5523 38.165 26.992 37.7519 26.5788L30.4819 17.2317C30.1413 16.8902 29.7366 16.6194 29.2911 16.4349C28.8455 16.2503 28.3678 16.1556 27.8855 16.1563H19.073C18.5907 16.1556 18.1131 16.2503 17.6675 16.4349C17.2219 16.6194 16.8172 16.8902 16.4766 17.2317L9.20668 26.5788C9.0021 26.7834 8.83982 27.0262 8.7291 27.2935C8.61839 27.5608 8.5614 27.8473 8.5614 28.1366C8.5614 28.426 8.61839 28.7124 8.7291 28.9797C8.83982 29.247 9.0021 29.4899 9.20668 29.6945C9.41126 29.8991 9.65413 30.0613 9.92143 30.1721C10.1887 30.2828 10.4752 30.3398 10.7645 30.3398C11.0538 30.3398 11.3403 30.2828 11.6076 30.1721C11.8749 30.0613 12.1178 29.8991 12.3224 29.6945L18.7016 24.7328L13.6099 40.8145C13.363 41.3441 13.3365 41.9501 13.5364 42.4991C13.7362 43.0482 14.146 43.4954 14.6755 43.7423C15.2051 43.9893 15.8111 44.0157 16.3601 43.8159C16.9092 43.616 17.3564 43.2062 17.6033 42.6767L23.4793 33.4289L29.3552 42.6767C29.6029 43.205 30.0501 43.6135 30.5986 43.8125C31.1472 44.0115 31.7523 43.9848 32.2811 43.7382C32.81 43.4916 33.2194 43.0453 33.4195 42.4971C33.6197 41.949 33.5942 41.3439 33.3486 40.8145L28.2569 24.7328Z" fill="#DA3535" stroke="black" stroke-width="1.5" stroke-linecap="round" stroke-linejoin="round"/>
</svg>
