<svg width="47" height="47" viewBox="0 0 47 47" fill="none" xmlns="http://www.w3.org/2000/svg">
<path d="M38.1875 19.0938C38.1875 32.3125 23.5 42.5938 23.5 42.5938C23.5 42.5938 8.8125 32.3125 8.8125 19.0938C8.8125 15.1984 10.3599 11.4626 13.1144 8.70812C15.8688 5.95368 19.6046 4.40625 23.5 4.40625C27.3954 4.40625 31.1312 5.95368 33.8856 8.70812C36.6401 11.4626 38.1875 15.1984 38.1875 19.0938Z" fill="#DA3535" stroke="black" stroke-width="1.5" stroke-linecap="round" stroke-linejoin="round"/>
<path d="M23.5 24.9688C26.7447 24.9688 29.375 22.3384 29.375 19.0938C29.375 15.8491 26.7447 13.2188 23.5 13.2188C20.2553 13.2188 17.625 15.8491 17.625 19.0938C17.625 22.3384 20.2553 24.9688 23.5 24.9688Z" fill="white" stroke="black" stroke-width="1.5" stroke-linecap="round" stroke-linejoin="round"/>
</svg>
