<svg width="27" height="20" viewBox="0 0 27 20" fill="none" xmlns="http://www.w3.org/2000/svg">
<path d="M13.8269 17.8241L22.753 6.57591C22.8282 6.48117 22.8692 6.37272 22.8719 6.2617C22.8746 6.15069 22.8389 6.04112 22.7684 5.94428C22.6978 5.84744 22.5951 5.76681 22.4707 5.7107C22.3463 5.65458 22.2047 5.625 22.0605 5.625L4.20833 5.625C4.06415 5.625 3.92258 5.65458 3.79817 5.7107C3.67376 5.76681 3.57101 5.84744 3.50049 5.94428C3.42996 6.04112 3.39421 6.15069 3.39691 6.2617C3.39961 6.37272 3.44066 6.48117 3.51584 6.57591L12.4419 17.8241C12.5144 17.9154 12.6162 17.9909 12.7374 18.0433C12.8587 18.0957 12.9954 18.1232 13.1344 18.1232C13.2734 18.1232 13.4101 18.0957 13.5314 18.0433C13.6527 17.9909 13.7544 17.9154 13.8269 17.8241Z" stroke="#AFAFAF" stroke-width="1.5" stroke-linecap="round" stroke-linejoin="round"/>
</svg>
