<svg width="23" height="20" viewBox="0 0 23 20" fill="none" xmlns="http://www.w3.org/2000/svg">
<path d="M3.55011 8.125H7.67985V16.25H3.55011C3.36756 16.25 3.19249 16.1842 3.06341 16.0669C2.93433 15.9497 2.86182 15.7908 2.86182 15.625V8.75C2.86182 8.58424 2.93433 8.42527 3.06341 8.30806C3.19249 8.19085 3.36756 8.125 3.55011 8.125V8.125Z" stroke="black" stroke-width="1.5" stroke-linecap="round" stroke-linejoin="round"/>
<path d="M7.67993 8.125L11.1214 1.875C11.4829 1.875 11.8409 1.93966 12.175 2.0653C12.509 2.19094 12.8125 2.37509 13.0682 2.60723C13.3238 2.83938 13.5266 3.11498 13.665 3.41829C13.8033 3.72161 13.8746 4.0467 13.8746 4.375V6.25H19.1981C19.3933 6.25 19.5862 6.28769 19.7642 6.36058C19.9421 6.43346 20.1009 6.53987 20.2301 6.67275C20.3593 6.80562 20.4558 6.96192 20.5134 7.13128C20.571 7.30063 20.5883 7.47917 20.564 7.65504L19.5316 15.155C19.49 15.4574 19.3282 15.7355 19.0767 15.9371C18.8252 16.1387 18.5012 16.25 18.1657 16.25H7.67993" stroke="black" stroke-width="1.5" stroke-linecap="round" stroke-linejoin="round"/>
</svg>
