<svg width="30" height="30" viewBox="0 0 30 30" fill="none" xmlns="http://www.w3.org/2000/svg">
<path d="M15 10.3128C15.0001 9.23584 15.371 8.19171 16.0504 7.35601C16.7297 6.5203 17.6761 5.94397 18.7304 5.72391C19.7847 5.50386 20.8826 5.6535 21.8395 6.14767C22.7964 6.64185 23.554 7.45042 23.985 8.43746L28.125 8.4375L24.3443 12.2183C24.0981 16.021 22.4139 19.5875 19.6337 22.1935C16.8535 24.7996 13.1857 26.2499 9.37502 26.25C5.62502 26.25 4.68752 24.8438 4.68752 24.8438C4.68752 24.8438 8.43752 23.4375 10.3125 20.625C10.3125 20.625 2.81252 16.875 4.68752 6.5625C4.68752 6.5625 9.37502 11.25 14.9984 12.1875L15 10.3128Z" stroke="black" stroke-width="1.5" stroke-linecap="round" stroke-linejoin="round"/>
</svg>
